<!DOCTYPE svg PUBLIC "-//W3C//DTD SVG 1.1//EN" "http://www.w3.org/Graphics/SVG/1.1/DTD/svg11.dtd">
<svg xmlns="http://www.w3.org/2000/svg" xmlns:xlink="http://www.w3.org/1999/xlink" width="243px" height="163px" version="1.1"><defs/><g transform="translate(0.5,0.5)"><path d="M 206 0 L 230 0 Q 242 0 242 12 L 242 25 Q 242 37 230 37 L 12 37 L 12 50 L 36 50 M 36 62 L 12 62 Q 0 62 0 50 L 0 37 Q 0 25 12 25 L 230 25 L 230 12 L 206 12 M 36 62" fill="none" stroke="#000000" stroke-linejoin="round" stroke-miterlimit="10" pointer-events="none"/><path d="M 36 50 L 66 50 L 176 50 L 206 50 M 206 62 L 176 62 Q 176 62 176 62 L 66 62 Q 66 62 66 62 L 36 62 M 206 62" fill="none" stroke="#000000" stroke-linejoin="round" stroke-miterlimit="10" pointer-events="none"/><path d="M 206 50 L 230 50 Q 242 50 242 62 L 242 75 Q 242 87 230 87 L 12 87 L 12 100 L 36 100 M 36 112 L 12 112 Q 0 112 0 100 L 0 87 Q 0 75 12 75 L 230 75 L 230 62 L 206 62 M 36 112" fill="none" stroke="#000000" stroke-linejoin="round" stroke-miterlimit="10" pointer-events="none"/><path d="M 36 100 L 66 100 L 176 100 L 206 100 M 206 112 L 176 112 Q 176 112 176 112 L 66 112 Q 66 112 66 112 L 36 112 M 206 112" fill="none" stroke="#000000" stroke-linejoin="round" stroke-miterlimit="10" pointer-events="none"/><path d="M 206 100 L 230 100 Q 242 100 242 112 L 242 125 Q 242 137 230 137 L 12 137 L 12 150 L 36 150 M 36 162 L 12 162 Q 0 162 0 150 L 0 137 Q 0 125 12 125 L 230 125 L 230 112 L 206 112 M 36 162" fill="none" stroke="#000000" stroke-linejoin="round" stroke-miterlimit="10" pointer-events="none"/><path d="M 6 0 L 36 0 L 176 0 L 206 0 M 206 12 L 176 12 Q 176 12 176 12 L 36 12 Q 36 12 36 12 L 6 12 M 206 12" fill="none" stroke="#000000" stroke-linejoin="round" stroke-miterlimit="10" pointer-events="none"/><path d="M 36 150 L 66 150 L 206 150 L 236 150 M 236 162 L 206 162 Q 206 162 206 162 L 66 162 Q 66 162 66 162 L 36 162 M 236 162" fill="none" stroke="#000000" stroke-linejoin="round" stroke-miterlimit="10" pointer-events="none"/></g></svg>