<!DOCTYPE svg PUBLIC "-//W3C//DTD SVG 1.1//EN" "http://www.w3.org/Graphics/SVG/1.1/DTD/svg11.dtd">
<svg xmlns="http://www.w3.org/2000/svg" xmlns:xlink="http://www.w3.org/1999/xlink" width="223px" height="103px" version="1.1"><defs/><g transform="translate(0.5,0.5)"><path d="M 16 30 L 46 30 L 156 30 L 186 30 M 186 42 L 156 42 Q 156 42 156 42 L 46 42 Q 46 42 46 42 L 16 42 M 186 42" fill="none" stroke="#000000" stroke-linejoin="round" stroke-miterlimit="10" pointer-events="none"/><path d="M 186 30 L 210 30 Q 222 30 222 42 L 222 45 Q 222 57 210 57 L 12 57 L 12 60 L 36 60 M 36 72 L 12 72 Q 0 72 0 60 L 0 57 Q 0 45 12 45 L 210 45 L 210 42 L 186 42 M 36 72" fill="none" stroke="#000000" stroke-linejoin="round" stroke-miterlimit="10" pointer-events="none"/><path d="M 16 60 L 46 60 L 166 60 L 196 60 M 196 72 L 166 72 Q 166 72 166 72 L 46 72 Q 46 72 46 72 L 16 72 M 196 72" fill="none" stroke="#000000" stroke-linejoin="round" stroke-miterlimit="10" pointer-events="none"/><path d="M 186 60 L 210 60 Q 222 60 222 72 L 222 75 Q 222 87 210 87 L 12 87 L 12 90 L 36 90 M 36 102 L 12 102 Q 0 102 0 90 L 0 87 Q 0 75 12 75 L 210 75 L 210 72 L 186 72 M 36 102" fill="none" stroke="#000000" stroke-linejoin="round" stroke-miterlimit="10" pointer-events="none"/><path d="M 186 0 L 210 0 Q 222 0 222 12 L 222 15 Q 222 27 210 27 L 12 27 L 12 30 L 36 30 M 36 42 L 12 42 Q 0 42 0 30 L 0 27 Q 0 15 12 15 L 210 15 L 210 12 L 186 12 M 36 42" fill="none" stroke="#000000" stroke-linejoin="round" stroke-miterlimit="10" pointer-events="none"/><path d="M 6 0 L 36 0 L 156 0 L 186 0 M 186 12 L 156 12 Q 156 12 156 12 L 36 12 Q 36 12 36 12 L 6 12 M 186 12" fill="none" stroke="#000000" stroke-linejoin="round" stroke-miterlimit="10" pointer-events="none"/><path d="M 36 90 L 66 90 L 176 90 L 206 90 M 206 102 L 176 102 Q 176 102 176 102 L 66 102 Q 66 102 66 102 L 36 102 M 206 102" fill="none" stroke="#000000" stroke-linejoin="round" stroke-miterlimit="10" pointer-events="none"/></g></svg>